<?xml version="1.0" encoding="UTF-8"?>
<svg version="1.1" xmlns="http://www.w3.org/2000/svg" width="861" height="370" viewBox="0 0 861 370">
<path d="M0 0 C37.95 0 75.9 0 115 0 C115 7.92 115 15.84 115 24 C85.3 24 55.6 24 25 24 C25 40.5 25 57 25 74 C52.39 74 79.78 74 108 74 C108 81.92 108 89.84 108 98 C80.61 98 53.22 98 25 98 C25 116.15 25 134.3 25 153 C56.02 153 87.04 153 119 153 C119 160.59 119 168.18 119 176 C79.73 176 40.46 176 0 176 C0 117.92 0 59.84 0 0 Z " fill="#B4482B" transform="translate(461,72)"/>
<path d="M0 0 C18.299925 14.81206801 29.82269601 36.65639326 32.65917969 59.95166016 C33.57815912 69.07523985 33.15936811 77.52117641 32.390625 86.74609375 C23.480625 86.74609375 14.570625 86.74609375 5.390625 86.74609375 C5.473125 83.48734375 5.555625 80.22859375 5.640625 76.87109375 C5.77774052 56.80453492 0.93629455 37.66893015 -13.18969727 22.77783203 C-25.37693736 10.80053757 -41.5027575 5.08301117 -58.359375 4.43359375 C-75.31481966 4.94821587 -91.17843921 10.3737551 -103.43359375 22.40234375 C-121.35589779 41.7082368 -123.16115203 61.36435034 -122.609375 86.74609375 C-131.519375 86.74609375 -140.429375 86.74609375 -149.609375 86.74609375 C-154.22155278 63.68520487 -147.75041038 39.4385366 -135.609375 19.74609375 C-133.15262124 16.19195703 -130.50903048 12.94645424 -127.609375 9.74609375 C-126.87203125 8.9159375 -126.1346875 8.08578125 -125.375 7.23046875 C-93.29505709 -26.94620246 -36.12426359 -28.14536071 0 0 Z " fill="#F5AC3B" transform="translate(218.609375,87.25390625)"/>
<path d="M0 0 C8.25 0 16.5 0 25 0 C25 50.49 25 100.98 25 153 C51.4 153 77.8 153 105 153 C105 160.59 105 168.18 105 176 C70.35 176 35.7 176 0 176 C0 117.92 0 59.84 0 0 Z " fill="#B4482B" transform="translate(309,72)"/>
<path d="M0 0 C9.24 0 18.48 0 28 0 C29.175625 2.454375 30.35125 4.90875 31.5625 7.4375 C34.74435059 13.88177081 38.06935931 19.70535227 43 25 C43.54527344 25.598125 44.09054688 26.19625 44.65234375 26.8125 C56.09329641 38.02813849 72.77308173 43.17753466 88.4375 43.375 C105.14426765 43.18303246 121.88426711 38.00250174 134 26 C139.82723973 19.22235379 144.33306046 12.12911898 148 4 C148.66 2.68 149.32 1.36 150 0 C158.91 0 167.82 0 177 0 C174.06335838 20.55649133 160.47733132 38.80442651 144.14453125 51.16015625 C141.48385825 52.90706277 138.79776496 54.48337991 136 56 C135.04480469 56.53109375 134.08960938 57.0621875 133.10546875 57.609375 C111.1175125 69.25175288 84.72232627 71.37174816 60.89257812 64.38183594 C37.45437804 56.8785538 18.67468172 41.78626089 7.02246094 20.06005859 C0 5.91117479 0 5.91117479 0 0 Z " fill="#B4472A" transform="translate(71,185)"/>
<path d="M0 0 C7.26 0 14.52 0 22 0 C28.4438264 13.49793163 34.28893524 27.23026869 40.125 41 C41.14970744 43.41513408 42.17444721 45.83025445 43.19921875 48.24536133 C44.7220002 51.83506661 46.2442445 55.4249955 47.76495361 59.01557922 C50.3031549 65.00762966 52.85031208 70.99553172 55.4201355 76.97409058 C56.67361575 79.8920574 57.92019502 82.81293321 59.16497803 85.73461914 C59.71787894 87.02769843 60.27403036 88.31939309 60.83355713 89.60961914 C61.58520307 91.34408963 62.32428896 93.08398774 63.0625 94.82421875 C63.46597656 95.76354248 63.86945313 96.70286621 64.28515625 97.6706543 C65 100 65 100 64 103 C55.09 102.67 46.18 102.34 37 102 C36.14019531 99.8446875 35.28039062 97.689375 34.39453125 95.46875 C26.33652009 75.28234172 18.20582852 55.12676442 10 35 C5.57536752 43.2334057 2.13113917 51.82152252 -1.33270264 60.48693848 C-2.98253701 64.61332297 -4.64655529 68.73398846 -6.30859375 72.85546875 C-6.63087952 73.65570465 -6.95316528 74.45594055 -7.28521729 75.28042603 C-9.7735304 81.4544619 -12.29539151 87.6134619 -14.875 93.75 C-15.18993408 94.504021 -15.50486816 95.25804199 -15.8293457 96.03491211 C-17.87495567 100.87495567 -17.87495567 100.87495567 -19 102 C-20.92478813 102.15806531 -22.8549921 102.251135 -24.78515625 102.31640625 C-25.95498047 102.35830078 -27.12480469 102.40019531 -28.33007812 102.44335938 C-29.56177734 102.48267578 -30.79347656 102.52199219 -32.0625 102.5625 C-33.91584961 102.62727539 -33.91584961 102.62727539 -35.80664062 102.69335938 C-38.87097335 102.79984198 -41.93539073 102.90185424 -45 103 C-44.32318054 98.15205599 -42.40354155 94.03947598 -40.4140625 89.6171875 C-40.04511368 88.78599899 -39.67616486 87.95481049 -39.29603577 87.09843445 C-38.07709946 84.35515173 -36.85110305 81.61508614 -35.625 78.875 C-34.77269412 76.96107836 -33.92089484 75.04693105 -33.06958008 73.13256836 C-31.74178735 70.14716028 -30.41351029 67.16197526 -29.08326721 64.17765808 C-25.94291539 57.13113261 -22.82605438 50.07458968 -19.72265625 43.01171875 C-18.86966537 41.07241235 -18.01663852 39.13312176 -17.16357422 37.19384766 C-15.93764559 34.40673204 -14.71241365 31.61932414 -13.48980713 28.83074951 C-9.21780458 19.09099411 -4.86579636 9.46084094 0 0 Z " fill="#B4472A" transform="translate(692,72)"/>
<path d="M0 0 C8.91 0 17.82 0 27 0 C30.94371408 7.88742816 34.72946793 15.7043732 38.21484375 23.78515625 C38.67484268 24.84866806 39.13484161 25.91217987 39.60877991 27.00791931 C40.56771691 29.22961727 41.52468644 31.45216541 42.47973633 33.67553711 C43.94903433 37.08929882 45.43239794 40.49673842 46.91601562 43.90429688 C47.84982594 46.07254322 48.78279966 48.24115009 49.71484375 50.41015625 C50.38337624 51.93818626 50.38337624 51.93818626 51.06541443 53.49708557 C51.4665596 54.43914352 51.86770477 55.38120148 52.28100586 56.35180664 C52.63819199 57.17943008 52.99537811 58.00705353 53.36338806 58.85975647 C54 61 54 61 53 64 C39.14 63.505 39.14 63.505 25 63 C21.6547971 55.64055361 18.41948145 48.30599151 15.390625 40.8203125 C14.77220734 39.29662552 14.77220734 39.29662552 14.14129639 37.74215698 C13.27965666 35.61668764 12.41925631 33.49071548 11.56005859 31.36425781 C10.24418034 28.11061028 8.92108048 24.85995931 7.59765625 21.609375 C6.75737225 19.53403237 5.91751327 17.45851758 5.078125 15.3828125 C4.68336975 14.4150589 4.2886145 13.4473053 3.88189697 12.45022583 C3.51771667 11.54513275 3.15353638 10.64003967 2.77832031 9.70751953 C2.45808899 8.91685089 2.13785767 8.12618225 1.80792236 7.31155396 C1 5 1 5 0 0 Z " fill="#F5AC3B" transform="translate(735,185)"/>
<path d="M0 0 C8.58 0 17.16 0 26 0 C25.07029328 4.64853359 23.65402776 8.73000517 21.90234375 13.09765625 C21.59201202 13.88106888 21.2816803 14.66448151 20.96194458 15.47163391 C19.95782884 18.00354575 18.94776138 20.53303485 17.9375 23.0625 C17.25086751 24.79038703 16.56458845 26.51841455 15.87866211 28.24658203 C14.21836784 32.42656991 12.55326979 36.60461901 10.88562012 40.78167725 C10.09271125 42.76777461 9.30053241 44.75416045 8.50878906 46.74072266 C6.34687139 52.16362888 4.17582916 57.58262945 2 63 C-7.9 63 -17.8 63 -28 63 C-21.90487108 48.90501436 -15.73389983 34.8464968 -9.5 20.8125 C-9.14357422 20.00929321 -8.78714844 19.20608643 -8.41992188 18.37854004 C-7.39560939 16.07088946 -6.36992778 13.76385287 -5.34375 11.45703125 C-4.88180237 10.41616112 -4.88180237 10.41616112 -4.41052246 9.35426331 C-3.00382775 6.196794 -1.54652849 3.09305699 0 0 Z " fill="#F5AC3B" transform="translate(642,185)"/>
<path d="M0 0 C2.6875 0.375 2.6875 0.375 4.75 2.5 C5.389375 3.44875 6.02875 4.3975 6.6875 5.375 C7.326875 6.303125 7.96625 7.23125 8.625 8.1875 C11.02078031 11.89006957 13.35016353 15.63526165 15.6875 19.375 C16.0175 13.105 16.3475 6.835 16.6875 0.375 C18.3375 0.375 19.9875 0.375 21.6875 0.375 C22.6875 1.375 22.6875 1.375 22.80102539 4.05883789 C22.79578857 5.22664795 22.79055176 6.39445801 22.78515625 7.59765625 C22.78193359 8.85771484 22.77871094 10.11777344 22.77539062 11.41601562 C22.76703403 12.75651109 22.75856907 14.09700588 22.75 15.4375 C22.7449866 16.78189942 22.74042342 18.1263006 22.73632812 19.47070312 C22.72449488 22.77217941 22.70800971 26.07356803 22.6875 29.375 C19.58984375 29.9375 19.58984375 29.9375 15.6875 29.375 C13.00640045 26.71773586 11.18053384 23.60143799 9.25 20.375 C8.70923828 19.51648438 8.16847656 18.65796875 7.61132812 17.7734375 C6.2810832 15.65446328 4.98128192 13.51643214 3.6875 11.375 C3.3575 17.315 3.0275 23.255 2.6875 29.375 C0.7075 29.375 -1.2725 29.375 -3.3125 29.375 C-3.33715881 25.40569011 -3.35534023 21.43640966 -3.36743164 17.46704102 C-3.37247057 16.11579614 -3.37930177 14.76455674 -3.38793945 13.41333008 C-3.40002419 11.47479566 -3.40519828 9.536222 -3.41015625 7.59765625 C-3.41539307 6.42984619 -3.42062988 5.26203613 -3.42602539 4.05883789 C-3.27681498 0.5313754 -3.27681498 0.5313754 0 0 Z " fill="#616161" transform="translate(557.3125,272.625)"/>
<path d="M0 0 C7 1 7 1 8.89624023 2.76586914 C9.36231689 3.51473389 9.82839355 4.26359863 10.30859375 5.03515625 C10.82744141 5.84404297 11.34628906 6.65292969 11.88085938 7.48632812 C12.65139648 8.7615332 12.65139648 8.7615332 13.4375 10.0625 C13.97826172 10.91650391 14.51902344 11.77050781 15.07617188 12.65039062 C16.40433603 14.75429668 17.70492455 16.87556589 19 19 C19.33 12.73 19.66 6.46 20 0 C21.65 0 23.3 0 25 0 C25 9.57 25 19.14 25 29 C19 29 19 29 16.83984375 26.875 C16.21207031 25.92625 15.58429688 24.9775 14.9375 24 C14.30714844 23.071875 13.67679687 22.14375 13.02734375 21.1875 C10.66391771 17.47159316 8.33402689 13.73444303 6 10 C5.67 16.27 5.34 22.54 5 29 C3.35 29 1.7 29 0 29 C0 19.43 0 9.86 0 0 Z " fill="#616161" transform="translate(243,273)"/>
<path d="M0 0 C5 0 5 0 6.7734375 1.58203125 C7.56621094 2.68611328 7.56621094 2.68611328 8.375 3.8125 C8.96152344 4.62203125 9.54804687 5.4315625 10.15234375 6.265625 C13.2051752 10.78355739 16.12574624 15.36599904 19 20 C19.33 13.4 19.66 6.8 20 0 C21.65 0 23.3 0 25 0 C25 9.57 25 19.14 25 29 C18 29 18 29 16.10375977 27.34765625 C15.63768311 26.59355469 15.17160645 25.83945312 14.69140625 25.0625 C14.17255859 24.25039063 13.65371094 23.43828125 13.11914062 22.6015625 C12.60544922 21.74304688 12.09175781 20.88453125 11.5625 20 C11.02173828 19.14148438 10.48097656 18.28296875 9.92382812 17.3984375 C8.5935832 15.27946328 7.29378192 13.14143214 6 11 C5.67 16.94 5.34 22.88 5 29 C3.35 29 1.7 29 0 29 C0 19.43 0 9.86 0 0 Z " fill="#606060" transform="translate(89,273)"/>
<path d="M0 0 C4.83858548 2.32968931 7.67031069 5.16141452 10 10 C10.81031875 15.07689504 10.5956419 18.82998912 8.25 23.4375 C4.27166845 27.9683776 1.35525497 29.80372875 -4.75 30.3125 C-9.29827641 30.22053118 -12.60447815 29.06886405 -16 26 C-18.67089592 22.36789669 -19.84998647 18.93341754 -20.5625 14.5 C-19.65596087 8.8593121 -17.00221653 4.83059797 -12.8125 1 C-8.50641427 -0.5310527 -4.51255311 -0.64465044 0 0 Z M-12 7 C-14.32124376 10.01761688 -14.41188886 13.28979744 -14.328125 17.03125 C-13.80947233 20.14316604 -12.21445226 21.85067869 -10 24 C-7.17998673 25.41000664 -5.12992745 25.24548451 -2 25 C1.11829207 23.65346479 2.60097612 22.65294817 4.375 19.75 C5.20813901 16.08418834 4.97369633 13.63513295 4 10 C2.02033737 6.93692369 2.02033737 6.93692369 -1 5 C-5.14893725 4.49048139 -8.56199608 4.45333043 -12 7 Z " fill="#5F5F5F" transform="translate(399,273)"/>
<path d="M0 0 C3.6854975 1.32791528 6.34555272 3.21466326 8.875 6.25 C11.02049152 11.49453484 11.48497446 15.31685333 9.9375 20.6875 C7.40978339 25.00908001 4.53974732 27.73012634 0 30 C-5.60727817 30.37381854 -9.16772538 30.18490827 -14 27 C-18.44427138 22.07526685 -19.36172836 19.04605317 -19.27734375 12.5390625 C-18.72366713 7.47019202 -15.98848103 4.87354138 -12.3125 1.625 C-8.01213267 -0.48461416 -4.70334572 -0.80979344 0 0 Z M-10.875 7.375 C-13.93686697 11.15730626 -14.46844781 13.12814277 -14 18 C-11.7241177 22.22481746 -11.7241177 22.22481746 -8 25 C-3.85864965 25.39069343 -1.68813188 25.43382227 1.875 23.1875 C4.62945506 20.35203155 4.95042575 18.5354019 5.3125 14.625 C4.94884973 10.40665686 3.95115008 8.95115008 1 6 C-3.48642468 3.75678766 -7.09044159 4.24862566 -10.875 7.375 Z " fill="#5F5F5F" transform="translate(535,273)"/>
<path d="M0 0 C13.92857143 0 13.92857143 0 18 3 C20.0345567 5.56531062 20.01421348 6.76784648 19.8125 10.0625 C18.99173202 13.02989194 18.46672937 14.22395486 16 16 C15.34 16 14.68 16 14 16 C14.51691406 16.84304688 15.03382813 17.68609375 15.56640625 18.5546875 C16.22511719 19.65039062 16.88382813 20.74609375 17.5625 21.875 C18.22378906 22.96554687 18.88507812 24.05609375 19.56640625 25.1796875 C20.03949219 26.11039062 20.51257813 27.04109375 21 28 C20.67 28.66 20.34 29.32 20 30 C17.375 29.625 17.375 29.625 14 28 C12.24210424 25.49173147 10.80885174 22.93049494 9.39453125 20.21484375 C8.13301394 17.69193986 8.13301394 17.69193986 5 17 C5 20.96 5 24.92 5 29 C3.35 29 1.7 29 0 29 C0 19.43 0 9.86 0 0 Z M5 5 C5 7.31 5 9.62 5 12 C9.00254456 12.09181134 9.00254456 12.09181134 13 12 C14.29633621 10.93354885 14.29633621 10.93354885 14.0625 8.4375 C14.041875 7.633125 14.02125 6.82875 14 6 C11.03 5.67 8.06 5.34 5 5 Z " fill="#606060" transform="translate(691,273)"/>
<path d="M0 0 C12.69230769 0 12.69230769 0 18 3 C19.58791315 6.17582631 19.41019741 9.54161153 19 13 C17.625 15 17.625 15 16 16 C15.34 16 14.68 16 14 16 C14.433125 16.77085937 14.86625 17.54171875 15.3125 18.3359375 C15.869375 19.33882813 16.42625 20.34171875 17 21.375 C17.556875 22.37273437 18.11375 23.37046875 18.6875 24.3984375 C20 27 20 27 20 29 C17.375 29.625 17.375 29.625 14 29 C11.32684153 25.6766138 8 21.39617525 8 17 C7.01 17 6.02 17 5 17 C5 20.96 5 24.92 5 29 C3.35 29 1.7 29 0 29 C0 19.43 0 9.86 0 0 Z M5 5 C5 7.31 5 9.62 5 12 C7.64 12 10.28 12 13 12 C13.33 10.35 13.66 8.7 14 7 C10.5647952 4.70986347 9.014669 4.82157027 5 5 Z " fill="#5F5F5F" transform="translate(183,273)"/>
<path d="M0 0 C5.94 0 11.88 0 18 0 C18.33 1.65 18.66 3.3 19 5 C18 6 18 6 15.05859375 6.09765625 C13.26615234 6.08025391 13.26615234 6.08025391 11.4375 6.0625 C9.64119141 6.04896484 9.64119141 6.04896484 7.80859375 6.03515625 C6.88175781 6.02355469 5.95492188 6.01195312 5 6 C5 7.98 5 9.96 5 12 C9.29 12 13.58 12 18 12 C18 13.65 18 15.3 18 17 C13.71 17 9.42 17 5 17 C5 19.31 5 21.62 5 24 C9.62 24 14.24 24 19 24 C19 25.65 19 27.3 19 29 C12.73 29 6.46 29 0 29 C0 19.43 0 9.86 0 0 Z " fill="#5F5F5F" transform="translate(311,273)"/>
<path d="M0 0 C1.65 0 3.3 0 5 0 C5.02505615 0.59014893 5.0501123 1.18029785 5.07592773 1.78833008 C5.19200052 4.46326814 5.31467572 7.1378638 5.4375 9.8125 C5.47681641 10.74126953 5.51613281 11.67003906 5.55664062 12.62695312 C5.59853516 13.51962891 5.64042969 14.41230469 5.68359375 15.33203125 C5.72025146 16.15421143 5.75690918 16.9763916 5.79467773 17.82348633 C5.93427772 20.17905178 5.93427772 20.17905178 7 23 C10.40320934 23.67673447 10.40320934 23.67673447 14 24 C16.48057628 21.51942372 16.29019005 20.63807536 16.4140625 17.2109375 C16.45273438 16.26992188 16.49140625 15.32890625 16.53125 14.359375 C16.5621875 13.37453125 16.593125 12.3896875 16.625 11.375 C16.66367188 10.38242187 16.70234375 9.38984375 16.7421875 8.3671875 C16.8366314 5.91164615 16.92219875 3.4561159 17 1 C18.65614657 0.61781233 20.32457024 0.28604898 22 0 C24.28030908 2.28030908 23.232825 7.6282023 23.25 10.6875 C23.270625 11.58662109 23.29125 12.48574219 23.3125 13.41210938 C23.34357065 18.70577147 22.99810251 22.43798344 20 27 C17.11067212 29.40777323 15.30521864 29.96115399 11.5625 30.4375 C7.31654773 29.91606726 5.26182423 28.73082959 2 26 C0.01061032 22.87513696 -0.23797216 20.46560609 -0.1953125 16.796875 C-0.18886719 15.8171875 -0.18242187 14.8375 -0.17578125 13.828125 C-0.15902344 12.81234375 -0.14226562 11.7965625 -0.125 10.75 C-0.11597656 9.71875 -0.10695312 8.6875 -0.09765625 7.625 C-0.07412011 5.08309713 -0.04124023 2.5416672 0 0 Z " fill="#606060" transform="translate(150,273)"/>
<path d="M0 0 C3.13533371 1.40671773 3.56359446 3.50976246 4.84667969 6.63452148 C5.33007812 7.79532227 5.81347656 8.95612305 6.31152344 10.15209961 C6.80265625 11.37477539 7.29378906 12.59745117 7.79980469 13.85717773 C8.30640625 15.07598633 8.81300781 16.29479492 9.33496094 17.55053711 C13.04980469 26.57730703 13.04980469 26.57730703 13.04980469 28.91967773 C11.06980469 28.91967773 9.08980469 28.91967773 7.04980469 28.91967773 C6.38980469 27.26967773 5.72980469 25.61967773 5.04980469 23.91967773 C0.75980469 23.58967773 -3.53019531 23.25967773 -7.95019531 22.91967773 C-8.28019531 24.56967773 -8.61019531 26.21967773 -8.95019531 27.91967773 C-9.95019531 28.91967773 -9.95019531 28.91967773 -12.51269531 28.98217773 C-13.31707031 28.96155273 -14.12144531 28.94092773 -14.95019531 28.91967773 C-13.94669612 22.93256168 -11.43200656 17.70050148 -9.01269531 12.16967773 C-8.32916992 10.5705957 -8.32916992 10.5705957 -7.63183594 8.93920898 C-7.19162109 7.92729492 -6.75140625 6.91538086 -6.29785156 5.87280273 C-5.89574463 4.94628906 -5.4936377 4.01977539 -5.0793457 3.06518555 C-3.70354079 0.45100749 -2.96011714 -0.12191769 0 0 Z M-1.95019531 7.91967773 C-2.94019531 11.21967773 -3.93019531 14.51967773 -4.95019531 17.91967773 C-2.31019531 17.91967773 0.32980469 17.91967773 3.04980469 17.91967773 C1.72980469 14.61967773 0.40980469 11.31967773 -0.95019531 7.91967773 C-1.28019531 7.91967773 -1.61019531 7.91967773 -1.95019531 7.91967773 Z " fill="#5F5F5F" transform="translate(222.9501953125,273.080322265625)"/>
<path d="M0 0 C3.13533371 1.40671773 3.56359446 3.50976246 4.84667969 6.63452148 C5.33007812 7.79532227 5.81347656 8.95612305 6.31152344 10.15209961 C6.80265625 11.37477539 7.29378906 12.59745117 7.79980469 13.85717773 C8.30640625 15.07598633 8.81300781 16.29479492 9.33496094 17.55053711 C13.04980469 26.57730703 13.04980469 26.57730703 13.04980469 28.91967773 C11.06980469 28.91967773 9.08980469 28.91967773 7.04980469 28.91967773 C6.38980469 27.26967773 5.72980469 25.61967773 5.04980469 23.91967773 C0.75980469 23.58967773 -3.53019531 23.25967773 -7.95019531 22.91967773 C-8.28019531 24.56967773 -8.61019531 26.21967773 -8.95019531 27.91967773 C-9.95019531 28.91967773 -9.95019531 28.91967773 -12.51269531 28.98217773 C-13.31707031 28.96155273 -14.12144531 28.94092773 -14.95019531 28.91967773 C-13.94669612 22.93256168 -11.43200656 17.70050148 -9.01269531 12.16967773 C-8.32916992 10.5705957 -8.32916992 10.5705957 -7.63183594 8.93920898 C-7.19162109 7.92729492 -6.75140625 6.91538086 -6.29785156 5.87280273 C-5.89574463 4.94628906 -5.4936377 4.01977539 -5.0793457 3.06518555 C-3.70354079 0.45100749 -2.96011714 -0.12191769 0 0 Z M-1.95019531 8.91967773 C-2.94019531 11.88967773 -3.93019531 14.85967773 -4.95019531 17.91967773 C-2.31019531 17.91967773 0.32980469 17.91967773 3.04980469 17.91967773 C1.72980469 14.94967773 0.40980469 11.97967773 -0.95019531 8.91967773 C-1.28019531 8.91967773 -1.61019531 8.91967773 -1.95019531 8.91967773 Z " fill="#5F5F5F" transform="translate(778.9501953125,273.080322265625)"/>
<path d="M0 0 C1.8828125 0.11328125 1.8828125 0.11328125 4 1 C5.4921875 3.23046875 5.4921875 3.23046875 6.875 6.1875 C7.3803125 7.26128906 7.885625 8.33507812 8.40625 9.44140625 C8.9321875 10.61574219 9.458125 11.79007812 10 13 C10.28230469 13.62890137 10.56460938 14.25780273 10.85546875 14.90576172 C16 26.43149038 16 26.43149038 16 29 C14.02 29 12.04 29 10 29 C9.34 27.02 8.68 25.04 8 23 C3.71 23 -0.58 23 -5 23 C-5.33 24.65 -5.66 26.3 -6 28 C-7 29 -7 29 -9.5625 29.0625 C-10.366875 29.041875 -11.17125 29.02125 -12 29 C-11.37183114 25.22927988 -10.28064931 22.01407901 -8.75 18.515625 C-8.3065625 17.49855469 -7.863125 16.48148437 -7.40625 15.43359375 C-6.71015625 13.85771484 -6.71015625 13.85771484 -6 12.25 C-5.30390625 10.65091797 -5.30390625 10.65091797 -4.59375 9.01953125 C-1.14143991 1.14143991 -1.14143991 1.14143991 0 0 Z M1 8 C0.01 11.3 -0.98 14.6 -2 18 C0.64 18 3.28 18 6 18 C4.68 14.7 3.36 11.4 2 8 C1.67 8 1.34 8 1 8 Z " fill="#5F5F5F" transform="translate(641,273)"/>
<path d="M0 0 C1.32 0 2.64 0 4 0 C4.06058594 1.22976563 4.12117188 2.45953125 4.18359375 3.7265625 C4.26805005 5.35938427 4.35269547 6.99219627 4.4375 8.625 C4.47681641 9.43324219 4.51613281 10.24148438 4.55664062 11.07421875 C4.78796082 15.45150865 5.16920917 19.68547281 6 24 C8.97 24 11.94 24 15 24 C15.78688902 20.85244392 16.17362433 18.41637213 16.31640625 15.234375 C16.35830078 14.34492188 16.40019531 13.45546875 16.44335938 12.5390625 C16.48267578 11.61867188 16.52199219 10.69828125 16.5625 9.75 C16.60568359 8.81414062 16.64886719 7.87828125 16.69335938 6.9140625 C16.7991805 4.60951359 16.90126557 2.30486161 17 0 C18.65 0 20.3 0 22 0 C22.11681812 3.54138618 22.187455 7.0822724 22.25 10.625 C22.30027344 12.12353516 22.30027344 12.12353516 22.3515625 13.65234375 C22.43284619 19.78926199 22.1176914 23.33788385 18 28 C14.58542996 30.59036348 11.16717829 30.43108741 7 30 C3.79687794 28.36822084 1.65798942 27.1403668 -0.15625 23.99609375 C-1.39986011 19.58012635 -1.24907734 15.31320513 -1.1875 10.75 C-1.18685547 9.82703125 -1.18621094 8.9040625 -1.18554688 7.953125 C-1.14046308 1.14046308 -1.14046308 1.14046308 0 0 Z " fill="#606060" transform="translate(443,273)"/>
<path d="M0 0 C2.5 1 2.5 1 4 2 C3.67 3.32 3.34 4.64 3 6 C-0.33333333 6 -3.66666667 6 -7 6 C-7.33 7.32 -7.66 8.64 -8 10 C-7.31292969 10.24234375 -6.62585938 10.4846875 -5.91796875 10.734375 C-5.01691406 11.06953125 -4.11585938 11.4046875 -3.1875 11.75 C-2.29417969 12.07484375 -1.40085938 12.3996875 -0.48046875 12.734375 C2.29992081 14.15303046 3.47437277 15.29455439 5 18 C4.92806179 22.02853967 4.63067947 24.22690903 2.0625 27.375 C-1.68936816 30.33101734 -4.23856793 30.3174288 -9 30 C-12.4375 28.5 -12.4375 28.5 -15 27 C-14.1875 25.0625 -14.1875 25.0625 -13 23 C-12.01 22.67 -11.02 22.34 -10 22 C-10 22.66 -10 23.32 -10 24 C-7.69 24 -5.38 24 -3 24 C-2.34 22.35 -1.68 20.7 -1 19 C-1.60328125 18.82984375 -2.2065625 18.6596875 -2.828125 18.484375 C-11.54612136 15.84085352 -11.54612136 15.84085352 -14 12 C-14.5 8.5 -14.5 8.5 -14 5 C-10.01021667 -0.05372555 -6.22115417 -0.52867516 0 0 Z " fill="#5F5F5F" transform="translate(137,273)"/>
<path d="M0 0 C0.639375 0.495 1.27875 0.99 1.9375 1.5 C1.6075 2.82 1.2775 4.14 0.9375 5.5 C-3.0625 5.5 -3.0625 5.5 -5.0625 4.5 C-9.03607645 3.97018981 -10.60420381 4.18118526 -13.9375 6.5 C-16.30516331 9.8425835 -16.81976358 11.56013415 -16.546875 15.5625 C-15.68151083 19.02395669 -13.92051731 20.51181405 -11.0625 22.5 C-6.42047353 23.27367108 -3.85010491 22.17360347 -0.0625 19.5 C0.9275 20.16 1.9175 20.82 2.9375 21.5 C2.9375 22.49 2.9375 23.48 2.9375 24.5 C-2.41059964 28.06539976 -5.61701624 29.31847413 -12.0625 28.5 C-16.38883002 26.25363633 -19.54817037 23.69054939 -22.0625 19.5 C-23.46883143 14.76383867 -23.5380555 10.75171442 -21.5625 6.1875 C-16.95593572 -1.68925326 -8.14386554 -3.9888321 0 0 Z " fill="#5F5F5F" transform="translate(756.0625,274.5)"/>
<path d="M0 0 C0.99 0.66 1.98 1.32 3 2 C2.67 3.32 2.34 4.64 2 6 C-1.33333333 6 -4.66666667 6 -8 6 C-8.2113453 8.3912295 -8.2113453 8.3912295 -7 11 C-4.76778903 12.2468991 -2.53129458 13.13632011 -0.12890625 14.0078125 C2 15 2 15 4 18 C4.50326079 21.85833276 4.31669325 23.50857943 2.1875 26.8125 C-0.65273233 29.65273233 -2.39759663 29.95537753 -6.375 30.25 C-10.18872515 29.98698447 -11.95161362 29.21700828 -15 27 C-14.67 25.68 -14.34 24.36 -14 23 C-12.68 23 -11.36 23 -10 23 C-9.67 23.33 -9.34 23.66 -9 24 C-6.66702567 24.04092937 -4.33294775 24.04241723 -2 24 C-2 22.68 -2 21.36 -2 20 C-2.68707031 19.68546875 -3.37414062 19.3709375 -4.08203125 19.046875 C-4.98308594 18.61890625 -5.88414062 18.1909375 -6.8125 17.75 C-7.70582031 17.33234375 -8.59914063 16.9146875 -9.51953125 16.484375 C-12.16257002 14.902714 -13.47229259 13.65953051 -15 11 C-15 6.88532504 -14.62659316 4.76366042 -12 1.5625 C-7.9984311 -0.52165047 -4.43885526 -0.71487182 0 0 Z " fill="#5F5F5F" transform="translate(368,273)"/>
<path d="M0 0 C2.27734375 1.02734375 2.27734375 1.02734375 4 2 C4 2.99 4 3.98 4 5 C2.35 5.66 0.7 6.32 -1 7 C-1.33 6.67 -1.66 6.34 -2 6 C-3.99958364 5.95919217 -6.00045254 5.95745644 -8 6 C-8.13440778 8.42919865 -8.13440778 8.42919865 -7 11 C-5.04137569 12.00566136 -3.12397505 12.62529122 -1.0078125 13.2265625 C1.34033056 14.1311001 2.46590816 15.01084116 4 17 C4.46042209 20.17179661 4.7151476 21.9870011 4 25 C0.96662878 28.55126387 -0.86408601 29.83772657 -5.5 30.5 C-9.22171803 29.968326 -11.77093367 28.89018517 -15 27 C-15 26.01 -15 25.02 -15 24 C-13.68 23.34 -12.36 22.68 -11 22 C-10.01 22.66 -9.02 23.32 -8 24 C-5.37468476 24.16713569 -5.37468476 24.16713569 -3 24 C-2.67 22.68 -2.34 21.36 -2 20 C-2.69867187 19.66226562 -3.39734375 19.32453125 -4.1171875 18.9765625 C-5.02726563 18.53054688 -5.93734375 18.08453125 -6.875 17.625 C-7.77992188 17.18414062 -8.68484375 16.74328125 -9.6171875 16.2890625 C-12 15 -12 15 -14 13 C-14.55090376 8.19926727 -14.70273285 6.08810248 -12.0625 2 C-8.01169399 -0.64542433 -4.72271257 -0.80260768 0 0 Z " fill="#606060" transform="translate(603,273)"/>
<path d="M0 0 C3 1.3125 3 1.3125 5 3 C5.33 3.99 5.66 4.98 6 6 C4.35 6.66 2.7 7.32 1 8 C1 7.34 1 6.68 1 6 C-5.02728651 5.45299479 -5.02728651 5.45299479 -10.5 7.5625 C-12.51221621 10.83235134 -12.93382801 13.16202455 -13 17 C-11.45204133 21.32393774 -11.45204133 21.32393774 -8 24 C-2.67032792 24.34092041 -2.67032792 24.34092041 2 22 C4.6875 22.375 4.6875 22.375 7 23 C5.96008872 26.01574271 5.03085171 26.97991051 2.3125 28.75 C-1.98893362 30.3731825 -5.51043716 31.00095825 -9.89453125 29.23828125 C-14.74167107 26.65654151 -17.28267857 24.15196428 -19 19 C-19.3684431 13.38124276 -19.19190228 9.84288621 -16 5 C-10.68984235 0.20790651 -7.01519645 -0.69061519 0 0 Z " fill="#5F5F5F" transform="translate(296,273)"/>
<path d="M0 0 C5.94 0 11.88 0 18 0 C18.33 1.65 18.66 3.3 19 5 C18 6 18 6 15.05859375 6.09765625 C13.26615234 6.08025391 13.26615234 6.08025391 11.4375 6.0625 C9.64119141 6.04896484 9.64119141 6.04896484 7.80859375 6.03515625 C6.88175781 6.02355469 5.95492187 6.01195312 5 6 C5 7.98 5 9.96 5 12 C8.96 12 12.92 12 17 12 C17 13.65 17 15.3 17 17 C13.04 17 9.08 17 5 17 C5 20.96 5 24.92 5 29 C3.35 29 1.7 29 0 29 C0 19.43 0 9.86 0 0 Z " fill="#5F5F5F" transform="translate(664,273)"/>
<path d="M0 0 C7.26 0 14.52 0 22 0 C22.33 1.65 22.66 3.3 23 5 C22.67 5.33 22.34 5.66 22 6 C19.36 6 16.72 6 14 6 C14 13.59 14 21.18 14 29 C12.02 29 10.04 29 8 29 C8 21.74 8 14.48 8 7 C5.36 6.67 2.72 6.34 0 6 C0 4.02 0 2.04 0 0 Z " fill="#5F5F5F" transform="translate(472,273)"/>
<path d="M0 0 C1.65 0 3.3 0 5 0 C5 7.92 5 15.84 5 24 C8.96 24 12.92 24 17 24 C17 25.65 17 27.3 17 29 C11.39 29 5.78 29 0 29 C0 19.43 0 9.86 0 0 Z " fill="#616161" transform="translate(418,273)"/>
<path d="M0 0 C1.65 0.33 3.3 0.66 5 1 C5 10.24 5 19.48 5 29 C3.02 29 1.04 29 -1 29 C-1.02465881 25.03069011 -1.04284023 21.06140966 -1.05493164 17.09204102 C-1.05997057 15.74079614 -1.06680177 14.38955674 -1.07543945 13.03833008 C-1.08752419 11.09979566 -1.09269828 9.161222 -1.09765625 7.22265625 C-1.10289307 6.05484619 -1.10812988 4.88703613 -1.11352539 3.68383789 C-1 1 -1 1 0 0 Z " fill="#606060" transform="translate(720,273)"/>
<path d="M0 0 C1.65 0 3.3 0 5 0 C5 9.57 5 19.14 5 29 C3.35 29 1.7 29 0 29 C0 19.43 0 9.86 0 0 Z " fill="#5F5F5F" transform="translate(73,273)"/>
<path d="M0 0 C1.65 0 3.3 0 5 0 C5 9.57 5 19.14 5 29 C3.35 29 1.7 29 0 29 C0 19.43 0 9.86 0 0 Z " fill="#636363" transform="translate(502,273)"/>
<path d="M0 0 C0.33 0 0.66 0 1 0 C1 2.31 1 4.62 1 7 C1.66 7 2.32 7 3 7 C3 7.99 3 8.98 3 10 C2.34 10 1.68 10 1 10 C1 12.31 1 14.62 1 17 C0.67 17 0.34 17 0 17 C0 11.39 0 5.78 0 0 Z " fill="#FDB63D" transform="translate(249,152)"/>
</svg>
